<?xml version="1.0" standalone="no"?>
<!DOCTYPE svg PUBLIC "-//W3C//DTD SVG 20010904//EN"
 "http://www.w3.org/TR/2001/REC-SVG-20010904/DTD/svg10.dtd">
<svg version="1.0" xmlns="http://www.w3.org/2000/svg"
 width="512.000000pt" height="512.000000pt" viewBox="0 0 512.000000 512.000000"
 preserveAspectRatio="xMidYMid meet">

<g transform="translate(0.000000,512.000000) scale(0.100000,-0.100000)"
fill="#000000" stroke="none">
<path d="M2405 4664 c-49 -24 -115 -54 -145 -66 -30 -12 -60 -25 -65 -29 -6
-5 -44 -20 -85 -35 -41 -14 -79 -30 -85 -34 -5 -4 -41 -17 -80 -29 -38 -12
-77 -26 -85 -30 -8 -5 -58 -20 -110 -35 -52 -15 -104 -31 -115 -35 -11 -5 -51
-17 -90 -26 -38 -10 -96 -26 -128 -36 -32 -10 -108 -28 -170 -39 -62 -11 -121
-25 -132 -30 -24 -11 -287 -58 -405 -72 -47 -6 -91 -15 -98 -21 -20 -16 -11
-691 12 -877 27 -228 48 -365 57 -374 5 -6 9 -18 9 -29 0 -30 71 -351 80 -362
4 -5 16 -39 25 -75 9 -36 34 -119 57 -186 l40 -120 80 23 c127 37 294 49 462
34 253 -22 602 -103 936 -217 497 -169 616 -208 775 -249 192 -50 374 -87 538
-110 154 -21 449 -22 548 -2 82 17 182 62 213 96 10 11 22 18 27 15 13 -8 -51
-60 -108 -88 -92 -46 -162 -58 -398 -63 -200 -5 -221 -7 -233 -24 -7 -11 -22
-19 -33 -19 -14 0 -19 7 -19 28 l0 28 -122 18 c-248 37 -596 134 -1054 294
-615 215 -1057 300 -1362 262 -106 -14 -260 -54 -327 -85 -74 -36 -184 -132
-223 -195 -32 -52 -33 -58 -28 -126 3 -39 12 -97 21 -130 8 -32 15 -73 15 -91
0 -18 4 -41 10 -51 5 -9 14 -50 21 -90 l11 -73 27 43 c30 47 68 81 149 136 55
37 62 38 357 88 144 24 352 14 545 -25 80 -16 176 -34 214 -41 61 -10 300 -82
471 -141 33 -12 148 -52 255 -89 107 -37 220 -77 250 -88 30 -11 101 -30 158
-42 57 -12 120 -27 140 -34 52 -18 240 -58 253 -54 15 5 -193 62 -332 92 -63
13 -159 41 -214 61 -55 20 -140 49 -190 64 -49 16 -126 43 -170 61 -97 39
-407 143 -490 164 -164 41 -443 96 -491 96 -26 0 -43 4 -39 9 3 6 -12 12 -32
14 -21 2 -13 3 17 1 30 -1 57 -3 60 -4 3 -1 21 -1 41 0 19 1 142 -22 274 -50
234 -51 474 -124 745 -228 58 -22 132 -48 165 -57 33 -9 98 -30 144 -46 109
-38 542 -144 654 -160 48 -7 87 -17 87 -22 0 -4 69 -7 152 -6 203 3 288 24
396 98 120 81 131 103 211 398 42 155 50 194 40 187 -5 -3 0 10 10 28 27 46
45 147 36 204 -6 40 -15 55 -53 91 -58 52 -115 73 -204 73 -56 0 -72 4 -89 21
-11 11 -19 28 -16 37 2 10 25 83 50 164 160 510 243 1066 235 1578 l-3 205
-135 22 c-245 40 -552 108 -794 177 -105 30 -303 94 -331 107 -11 5 -51 20
-90 33 -38 13 -101 36 -139 50 -73 28 -138 58 -357 160 -31 14 -69 26 -85 25
-16 0 -69 -20 -119 -45z m221 -195 c236 -112 555 -229 684 -251 140 -24 219
-46 470 -128 128 -42 182 -56 330 -85 191 -37 180 -29 180 -122 0 -224 -72
-910 -110 -1054 l-10 -37 -68 2 c-37 0 -264 0 -504 -1 l-438 -3 0 -515 c0
-283 -3 -515 -6 -515 -13 0 -376 114 -517 163 l-149 50 7 61 c13 128 65 216
136 231 36 8 49 -2 65 -47 l10 -32 63 75 c114 136 210 363 248 588 13 77 14
108 4 174 -37 264 -270 467 -536 467 -233 0 -441 -148 -517 -367 -34 -100 -32
-251 5 -390 44 -164 108 -298 201 -421 58 -76 66 -81 66 -43 0 29 29 71 48 71
20 0 40 -40 62 -120 12 -47 37 -115 55 -152 35 -73 32 -78 -27 -54 -38 16
-339 97 -436 118 l-63 13 1 328 1 328 -503 -2 -503 -1 -21 123 c-48 284 -78
570 -89 836 -3 90 -3 178 0 196 l7 34 96 18 c195 36 386 85 627 159 66 21 161
43 210 51 95 15 198 47 435 137 107 41 320 135 376 167 1 1 51 -22 110 -50z
m54 -1114 c9 -8 26 -15 38 -15 27 0 75 -43 100 -90 l18 -35 -39 -32 c-21 -18
-43 -33 -49 -33 -5 0 -52 14 -104 32 -70 24 -95 37 -100 52 -4 12 -22 47 -42
79 -19 31 -33 59 -31 60 2 2 22 10 44 18 36 13 45 13 94 -3 30 -10 62 -25 71
-33z m-454 0 c-3 -9 -23 -41 -44 -73 -22 -31 -49 -75 -60 -98 -21 -42 -59 -74
-87 -74 -23 0 -18 20 22 88 53 89 193 219 169 157z m252 -72 c23 -37 42 -73
42 -81 0 -12 -23 -48 -102 -154 -10 -14 -35 -19 -114 -24 l-101 -7 -37 56 -37
55 41 74 c74 131 95 146 200 147 l65 1 43 -67z m189 -137 c50 -24 82 -59 64
-70 -5 -3 -11 1 -14 9 -8 20 -77 53 -126 61 -23 4 -41 10 -41 15 0 17 66 8
117 -15z m224 -3 c52 -38 64 -70 62 -181 -2 -178 -36 -197 -150 -88 l-43 40 0
103 c0 103 0 103 28 116 15 6 33 17 40 24 18 17 18 17 63 -14z m-748 -72 c15
-22 27 -47 27 -58 0 -13 -5 -10 -19 13 -10 17 -31 40 -45 51 -30 24 -33 33 -8
33 9 0 29 -18 45 -39z m284 -104 c6 -13 33 -48 61 -78 l50 -55 -38 -93 c-21
-51 -41 -95 -44 -98 -8 -9 -133 -16 -160 -9 -24 6 -84 80 -136 169 l-23 39 26
56 c14 31 28 65 31 75 5 15 19 17 114 17 104 0 109 -1 119 -23z m375 -144 c65
-64 69 -80 37 -148 -27 -57 -91 -98 -187 -122 l-73 -17 -44 44 -44 45 42 104
43 105 79 22 c44 12 82 22 85 23 2 0 30 -25 62 -56z m-730 3 c22 -9 47 -35 73
-73 22 -32 56 -79 77 -104 41 -50 46 -74 24 -104 -13 -18 -15 -18 -59 9 -65
37 -102 80 -143 162 -30 63 -33 75 -23 98 7 14 13 26 14 26 2 0 18 -6 37 -14z
m364 -221 c18 -14 17 -15 -11 -9 -46 10 -65 23 -34 24 14 0 34 -7 45 -15z m40
-14 c-3 -5 4 -11 16 -14 12 -4 19 -9 16 -12 -9 -10 -49 15 -43 26 4 5 8 9 11
9 3 0 3 -4 0 -9z m277 -66 c-33 -23 -202 -76 -231 -73 l-27 3 36 21 c20 12 67
27 105 33 38 7 75 15 81 19 7 4 22 8 34 9 22 2 22 2 2 -12z m-1346 -456 c47
-23 49 -26 28 -52 -13 -18 -15 -18 -60 2 -65 29 -82 27 -125 -17 -90 -90 -47
-232 70 -232 49 0 80 24 80 61 0 28 -2 29 -45 29 -43 0 -45 1 -45 29 0 17 5
33 11 36 6 4 39 4 75 0 l64 -7 0 -74 c0 -61 -4 -78 -20 -94 -29 -29 -63 -40
-126 -40 -102 0 -165 59 -172 160 -12 168 121 269 265 199z m277 -27 c2 -4 -7
-61 -20 -127 -13 -65 -21 -128 -18 -139 10 -34 34 -55 69 -62 69 -13 94 23
125 176 12 57 23 107 25 111 3 3 16 4 30 1 31 -5 31 -15 5 -132 -26 -119 -46
-165 -83 -196 -28 -23 -37 -26 -95 -22 -59 4 -67 7 -98 40 -45 50 -51 93 -29
203 29 146 33 155 60 155 13 0 26 -3 29 -8z m534 -121 c12 -7 18 -52 48 -350
6 -63 6 -64 -18 -58 -12 4 -28 7 -35 7 -7 0 -13 18 -15 43 -3 41 -4 42 -58 60
-30 10 -73 20 -95 23 -37 6 -42 4 -53 -21 -8 -18 -18 -25 -28 -21 -9 3 -24 6
-35 6 -10 0 -19 4 -19 9 0 11 211 266 242 294 22 18 45 22 66 8z m281 -105
c24 -13 30 -25 45 -98 10 -46 19 -89 22 -96 2 -9 22 1 61 31 80 61 113 76 141
66 12 -5 22 -16 22 -24 0 -9 -18 -64 -41 -123 -22 -59 -47 -127 -56 -152 -22
-64 -29 -71 -59 -58 -28 13 -29 14 -8 64 37 90 73 194 66 194 -4 0 -39 -23
-77 -50 -38 -28 -74 -49 -79 -47 -5 2 -17 40 -26 85 -9 45 -20 85 -23 88 -8 9
-41 -61 -72 -154 -26 -81 -28 -83 -54 -77 -41 10 -43 18 -18 76 13 30 43 107
67 172 24 64 47 117 52 117 5 0 22 -7 37 -14z m584 -196 c10 -9 52 -388 44
-396 -3 -3 -19 -3 -36 1 -28 6 -31 10 -31 45 l0 39 -62 19 c-115 36 -123 36
-136 7 -9 -20 -19 -25 -46 -25 -19 0 -37 4 -40 9 -5 8 161 217 232 294 25 26
52 29 75 7z m263 -78 c7 -4 35 -60 64 -124 29 -65 56 -118 60 -118 8 0 26 80
36 158 6 49 8 52 35 52 15 0 30 -4 33 -9 3 -5 -5 -64 -18 -132 -13 -68 -27
-148 -31 -176 -8 -60 -19 -72 -43 -50 -17 15 -88 157 -112 225 -22 57 -36 38
-55 -72 -9 -57 -20 -108 -24 -114 -11 -18 -51 -2 -51 20 0 23 48 316 55 336 5
13 33 16 51 4z m379 -109 c-3 -312 -4 -323 -27 -323 -50 0 -52 6 -45 189 3 94
8 175 12 181 4 6 19 10 33 8 25 -3 27 -6 27 -55z"/>
<path d="M1582 4100 c-100 -21 -147 -77 -140 -166 7 -85 53 -119 192 -143 110
-19 152 -48 140 -96 -10 -39 -59 -65 -121 -65 -65 0 -98 12 -134 51 l-28 30
-41 -21 c-40 -20 -40 -21 -25 -50 42 -82 178 -126 295 -96 73 19 114 46 137
89 22 42 21 128 -1 163 -24 35 -105 70 -195 83 -83 13 -106 23 -121 51 -23 43
35 90 113 90 31 0 57 -9 91 -30 l48 -31 34 22 c19 11 34 24 34 29 0 13 -62 62
-97 76 -43 18 -129 25 -181 14z"/>
<path d="M3230 4091 c-132 -43 -200 -138 -200 -276 0 -137 60 -233 169 -268
104 -33 228 -12 293 50 28 26 28 28 28 145 l0 118 -115 0 -115 0 0 -45 0 -45
70 0 70 0 0 -47 c0 -27 -4 -53 -8 -59 -26 -39 -154 -48 -210 -14 -62 38 -95
119 -81 196 13 67 51 122 102 145 57 26 104 24 165 -7 l53 -26 29 31 c17 17
30 33 30 36 0 2 -28 19 -62 36 -66 34 -166 47 -218 30z"/>
<path d="M2280 3819 l0 -270 48 3 47 3 3 75 c1 41 3 86 5 100 l2 25 130 0 130
0 3 43 3 42 -135 0 -136 0 0 75 0 75 140 0 140 0 0 50 0 50 -190 0 -190 0 0
-271z"/>
<path d="M2052 3640 c-26 -25 -27 -38 -6 -68 19 -28 57 -29 84 -2 26 26 25 36
-5 65 -29 30 -45 31 -73 5z"/>
<path d="M2795 3630 c-38 -42 10 -97 68 -78 56 20 38 98 -23 98 -15 0 -35 -9
-45 -20z"/>
<path d="M3687 3632 c-22 -24 -21 -55 1 -75 24 -22 55 -21 75 1 21 23 21 41 1
70 -18 27 -55 29 -77 4z"/>
<path d="M2116 1776 c-25 -29 -46 -55 -46 -58 0 -8 110 -41 117 -35 8 9 -8
147 -17 147 -5 0 -29 -24 -54 -54z"/>
<path d="M2981 1487 c-22 -30 -41 -58 -41 -64 0 -5 25 -17 55 -25 63 -18 59
-24 49 81 -4 33 -10 61 -14 61 -4 0 -26 -24 -49 -53z"/>
<path d="M1232 1559 c-314 -38 -552 -155 -552 -271 0 -16 5 -28 10 -28 6 0 10
-18 10 -39 0 -53 49 -117 120 -156 52 -28 62 -30 160 -29 114 0 214 24 351 85
98 43 108 40 176 -38 90 -105 319 -331 413 -406 123 -99 279 -200 405 -263
101 -51 116 -55 183 -56 69 -2 77 1 185 54 130 65 284 165 413 270 87 69 366
323 372 338 1 4 -91 26 -205 49 -267 54 -271 55 -188 28 l70 -23 1 -56 2 -55
-72 -66 c-134 -122 -296 -237 -466 -332 l-104 -59 -114 60 c-119 62 -350 228
-464 334 l-68 62 0 253 c0 140 3 256 8 258 4 3 47 -6 97 -19 49 -12 91 -22 93
-20 5 6 -51 26 -133 46 -257 66 -545 99 -703 79z"/>
<path d="M2719 1209 c30 -10 56 -17 58 -15 5 5 -86 36 -101 35 -6 0 13 -9 43
-20z"/>
</g>
</svg>
